<?xml version="1.0" standalone="no"?>
<!DOCTYPE svg PUBLIC "-//W3C//DTD SVG 20010904//EN"
 "http://www.w3.org/TR/2001/REC-SVG-20010904/DTD/svg10.dtd">
<svg version="1.0" xmlns="http://www.w3.org/2000/svg"
 width="684.000000pt" height="1024.000000pt" viewBox="0 0 684.000000 1024.000000"
 preserveAspectRatio="xMidYMid meet">
<metadata>
Created by potrace 1.16, written by Peter Selinger 2001-2019
</metadata>
<g transform="translate(0.000000,1024.000000) scale(0.100000,-0.100000)"
fill="#ffffff" stroke="none">
<path d="M4179 10225 c-36 -16 -36 -16 -32 -68 4 -48 29 -194 52 -308 6 -26
20 -77 32 -115 65 -206 154 -342 253 -388 47 -22 140 -23 191 -2 21 9 37 11
40 5 11 -16 7 -232 -5 -319 -15 -112 -35 -180 -77 -267 -70 -143 -204 -242
-353 -261 -78 -9 -239 -5 -298 7 -75 17 -67 22 -206 -144 -149 -178 -272 -382
-322 -537 -16 -48 -22 -56 -39 -52 -15 4 -49 -20 -130 -89 -314 -267 -595
-549 -802 -803 l-32 -39 -52 18 c-58 21 -66 19 -41 -9 57 -66 55 -58 31 -98
-11 -20 -26 -36 -33 -36 -6 0 -44 31 -85 68 l-74 69 27 74 c15 41 43 106 62
144 69 144 82 230 44 292 -19 32 -66 63 -93 63 -36 0 -163 -194 -208 -317 -12
-32 -23 -60 -25 -62 -2 -2 -25 16 -52 41 l-48 45 -83 -27 c-45 -15 -85 -31
-88 -34 -15 -15 -43 -5 -44 17 -1 12 -3 31 -5 42 -1 11 -6 65 -10 120 -8 115
-19 141 -94 208 -52 47 -124 77 -185 77 -41 0 -149 -48 -185 -83 -14 -13 -40
-39 -58 -59 l-33 -35 11 -238 c8 -178 8 -240 -1 -245 -6 -4 -97 -36 -203 -70
-105 -34 -213 -70 -241 -80 -27 -10 -135 -46 -240 -80 -104 -34 -199 -65 -210
-70 -41 -18 -205 -70 -220 -70 -13 0 -15 -113 -15 -1007 l0 -1007 24 -25 25
-26 10 -490 c6 -269 13 -499 15 -510 3 -11 5 -23 5 -27 1 -5 15 -8 32 -8 l30
0 -5 113 c-3 61 -8 245 -11 407 -3 162 -8 332 -12 377 -3 48 -2 83 3 83 8 0
319 -255 674 -550 25 -21 86 -71 135 -112 50 -41 182 -151 295 -244 357 -296
445 -368 489 -404 24 -19 71 -58 105 -87 79 -67 693 -574 861 -711 72 -59 141
-116 155 -128 29 -25 383 -319 449 -373 25 -20 61 -50 80 -67 20 -17 68 -56
108 -88 l71 -57 6 -92 c3 -51 10 -191 15 -312 6 -121 16 -329 23 -462 l12
-243 28 0 28 0 0 95 c0 52 -5 172 -10 267 -6 95 -15 283 -21 418 -6 135 -11
261 -12 280 -2 41 -9 36 238 145 17 7 66 30 110 50 44 20 107 48 140 62 33 14
93 41 133 59 41 19 75 34 77 34 2 0 39 16 82 36 43 20 106 49 141 65 35 16 65
29 67 29 2 0 39 16 82 36 43 20 106 49 141 65 35 16 65 29 67 29 2 0 43 18 90
40 47 22 88 40 91 40 3 0 33 14 66 30 57 28 97 33 84 11 -4 -5 -2 -74 3 -153
6 -79 12 -246 15 -373 7 -309 26 -852 34 -1000 l7 -120 30 0 c26 0 30 4 29 25
-1 14 -7 207 -13 430 -6 223 -16 484 -21 580 -5 96 -12 271 -15 387 l-6 213
208 2 208 3 -3 360 c-3 314 -11 615 -28 1035 -14 364 -54 824 -99 1149 l-8 54
44 -27 c24 -15 64 -36 88 -47 42 -19 205 -53 246 -52 11 1 65 27 119 60 97 58
99 59 112 109 45 178 58 403 28 518 -48 184 -170 302 -335 321 -30 4 -59 8
-65 10 -7 2 12 27 40 57 56 58 125 181 150 270 23 80 20 143 -8 204 -38 81
-108 125 -241 150 -124 24 -113 30 -284 -136 -141 -137 -171 -160 -171 -127 0
14 -45 134 -76 205 -13 29 -24 57 -24 62 0 6 -4 18 -9 28 -6 9 -29 60 -53 112
-24 52 -62 133 -85 179 l-42 84 18 41 c56 124 83 251 80 376 0 37 6 83 15 108
9 24 19 73 22 108 7 63 9 67 46 90 61 39 62 39 93 -18 35 -67 99 -153 145
-196 98 -93 239 -151 368 -152 49 0 52 -1 42 -19 -5 -11 -10 -40 -10 -66 0
-79 42 -138 146 -206 l64 -41 72 10 c101 14 143 26 206 59 160 83 242 235 228
420 -7 94 -23 168 -58 268 -24 70 -24 70 -60 69 -25 -1 -57 -15 -106 -48 -38
-25 -73 -46 -77 -46 -4 0 -4 11 -1 24 13 50 7 431 -9 536 -24 169 -79 341
-133 418 -19 26 -19 44 -15 352 9 570 -24 780 -123 780 -40 0 -110 -75 -186
-200 -31 -52 -69 -186 -74 -265 -8 -120 -8 -120 -66 -146 -29 -13 -56 -24 -59
-24 -4 0 -33 36 -64 80 -31 44 -74 100 -94 125 l-38 45 9 185 c15 360 18 374
93 575 4 11 13 37 21 58 8 21 12 42 9 47 -9 15 -127 22 -197 11 -229 -33 -360
-204 -383 -498 l-7 -91 -41 -4 c-85 -8 -83 -12 -95 135 -6 73 -14 173 -17 222
-9 145 -16 218 -20 225 -2 4 -41 14 -87 24 -46 10 -101 22 -123 28 -21 5 -100
12 -175 14 -108 4 -142 1 -171 -11z m796 -792 c22 -37 45 -75 50 -84 43 -73
74 -133 71 -137 -10 -9 -88 -14 -131 -8 -77 12 -127 75 -161 204 -24 92 -25
92 59 92 l73 0 39 -67z m372 -245 c79 -105 123 -167 123 -176 0 -5 -24 -25
-54 -45 -57 -38 -98 -84 -115 -130 -9 -24 -7 -40 15 -95 54 -137 115 -187 246
-200 l71 -7 1 -50 1 -50 -75 -37 c-41 -20 -84 -37 -95 -38 -29 0 -60 24 -86
67 -12 21 -23 39 -25 41 -1 2 -25 -11 -52 -28 -64 -39 -106 -44 -110 -13 -2
12 9 56 23 98 15 42 25 77 23 78 -1 1 -25 13 -51 26 -59 30 -113 90 -121 136
-7 38 8 108 30 139 8 11 14 23 14 27 0 3 -29 25 -64 48 -61 39 -116 92 -116
111 0 5 8 14 18 19 22 11 162 61 174 61 4 0 21 -21 37 -47 l29 -46 53 81 c30
45 57 82 60 82 4 0 24 -24 46 -52z m-506 -24 c14 -12 15 -20 6 -44 -16 -43 15
-101 89 -167 58 -51 62 -57 53 -81 -37 -96 11 -225 103 -284 21 -12 38 -27 38
-32 0 -5 -7 -36 -16 -67 -21 -74 -13 -120 27 -153 37 -31 62 -32 130 -6 l52
19 33 -29 c18 -15 40 -32 48 -37 13 -7 16 -44 16 -242 1 -128 0 -234 -2 -236
-2 -1 -55 -35 -118 -75 -63 -40 -139 -89 -169 -108 l-54 -36 -16 24 c-8 14
-36 45 -61 70 -67 67 -127 83 -282 79 l-121 -4 -39 100 c-22 55 -43 109 -49
120 -5 11 -45 115 -89 230 -73 192 -79 211 -63 223 9 6 22 12 29 12 24 0 104
41 162 85 98 71 167 183 221 355 12 42 41 227 41 270 0 34 6 37 31 14z m1176
-671 c16 -27 41 -79 55 -118 41 -113 55 -187 73 -388 3 -32 -12 -42 -50 -33
l-25 6 0 150 0 150 -52 50 c-28 27 -55 50 -58 50 -4 0 -15 -9 -25 -20 -25 -28
-65 -25 -112 9 -62 45 -85 83 -78 128 4 21 8 44 10 51 3 9 36 12 119 12 l114
0 29 -47z m-1905 -80 c69 -3 131 -9 136 -12 5 -3 52 -118 105 -256 53 -137
118 -305 144 -373 l48 -123 30 5 c17 3 59 10 95 16 137 24 247 -5 299 -78 33
-46 54 -156 42 -211 -6 -25 -10 -95 -10 -156 0 -81 -5 -131 -21 -188 -30 -113
-51 -152 -138 -248 -252 -281 -306 -339 -330 -355 -62 -40 -227 -55 -334 -30
-245 59 -460 302 -582 658 -15 43 -35 92 -46 110 -31 54 -51 117 -66 217 -34
220 47 488 228 752 108 158 231 294 257 283 9 -3 73 -8 143 -11z m1837 -157
l32 -33 2 -174 2 -174 40 -5 40 -5 5 -80 5 -80 33 -3 c17 -2 32 -9 33 -15 2
-32 -3 -109 -10 -133 -7 -26 -14 -16 -86 117 -153 279 -140 239 -143 442 -2
97 1 177 5 177 5 0 24 -15 42 -34z m-321 -561 c72 -30 134 -55 136 -55 3 0 35
-13 71 -30 36 -16 68 -30 71 -30 3 0 30 -11 59 -25 39 -17 62 -36 80 -65 26
-41 90 -157 109 -197 17 -35 25 -28 32 28 5 41 11 52 30 60 15 5 24 17 24 29
0 12 7 34 15 49 19 37 104 113 123 109 32 -7 68 -184 60 -300 -11 -161 -107
-268 -284 -314 -85 -22 -113 -18 -171 22 -57 39 -93 88 -93 125 0 38 84 110
168 142 77 31 89 49 56 92 -16 22 -14 22 -154 -35 -46 -19 -74 -23 -175 -24
-114 0 -123 1 -188 32 -82 38 -186 137 -238 227 -46 78 -51 93 -36 106 16 14
160 107 168 108 3 1 65 -24 137 -54z m-2223 -47 c-3 -13 -9 -70 -12 -128 -5
-109 8 -206 42 -300 11 -28 22 -118 31 -240 7 -107 18 -258 25 -335 6 -77 16
-216 23 -310 10 -141 14 -169 26 -166 8 3 47 5 85 5 63 0 80 -4 158 -43 62
-31 92 -52 103 -72 37 -72 157 -158 258 -185 63 -17 173 -18 178 -2 2 6 1 39
-3 72 -15 125 -30 346 -24 356 3 6 30 10 60 10 30 0 80 7 112 15 31 8 60 12
64 7 4 -4 11 -135 16 -292 l8 -284 35 -8 c19 -4 61 -8 93 -9 32 -1 59 -5 61
-8 4 -6 -5 -27 -75 -179 -22 -46 -39 -86 -39 -88 0 -2 -22 -50 -49 -107 l-48
-104 -156 -6 c-86 -4 -165 -3 -175 1 -11 4 -37 21 -58 39 -67 54 -417 335
-706 566 -152 122 -277 225 -277 230 -1 4 44 7 99 7 l100 0 0 504 c0 491 -1
505 -19 508 -19 3 -20 16 -25 248 l-6 245 43 37 c49 43 62 47 52 16z m-175
-586 l0 -448 -74 -149 c-81 -163 -176 -320 -194 -320 -6 0 -59 44 -117 99
-104 97 -105 99 -99 135 7 37 25 91 51 149 l14 32 114 0 115 0 0 163 c0 131
-3 171 -16 198 -62 129 -166 71 -243 -134 -6 -15 -18 -30 -28 -34 -16 -6 -178
42 -197 58 -25 22 196 261 629 678 45 43 45 47 45 -427z m-1296 -45 l49 -43
-11 -49 c-6 -28 -16 -70 -22 -95 -6 -25 -14 -138 -17 -251 l-6 -207 -81 -5
c-44 -2 -86 -1 -92 4 -6 5 -16 84 -23 176 -7 92 -17 204 -22 248 -5 44 -9 107
-9 141 l0 62 88 30 c48 17 89 31 92 31 3 1 27 -18 54 -42z m1751 -332 c131
-198 280 -313 478 -366 l47 -13 0 -46 c0 -25 5 -100 11 -166 7 -67 9 -128 6
-137 -5 -13 -12 -13 -57 -1 -29 7 -72 25 -95 38 -45 27 -135 120 -135 140 0 6
-8 16 -17 22 -93 57 -193 97 -274 109 l-46 7 -7 106 c-4 59 -11 150 -16 202
-5 52 -12 149 -15 215 l-6 120 35 -72 c19 -40 60 -111 91 -158z m-735 185 c6
-12 10 -63 8 -122 l-3 -103 -62 -1 c-70 -1 -74 5 -47 58 9 17 18 42 20 57 6
32 55 131 66 131 4 0 12 -9 18 -20z m-1806 -242 c3 -101 9 -226 12 -279 l6
-96 272 1 271 1 17 -35 c38 -77 55 -72 -284 -70 -167 1 -309 2 -315 1 -10 -1
-13 -31 -13 -116 0 -111 1 -115 23 -119 124 -27 283 -41 487 -41 195 0 234 3
290 20 97 29 156 69 199 134 33 52 36 61 36 131 -1 63 -5 83 -27 121 l-27 45
19 130 c11 71 26 161 36 199 9 39 18 82 21 98 3 15 8 27 12 27 3 0 36 -29 73
-65 l68 -65 -29 -58 c-43 -84 -67 -149 -81 -222 -12 -63 -11 -70 29 -235 23
-93 45 -183 50 -200 5 -16 16 -61 26 -100 9 -38 38 -157 64 -263 27 -106 45
-192 42 -190 -4 2 -33 32 -66 68 -292 324 -318 344 -386 304 -27 -16 -59 -60
-72 -98 -2 -6 -18 2 -36 17 -64 54 -137 26 -161 -61 -7 -29 -20 -47 -44 -61
-44 -28 -66 -62 -66 -104 0 -28 8 -42 41 -71 22 -20 50 -41 62 -45 15 -6 28
-26 41 -62 25 -74 45 -119 68 -152 16 -22 27 -27 51 -25 28 3 32 7 45 58 15
60 32 84 74 106 34 18 65 18 116 0 25 -9 44 -11 47 -5 10 15 31 10 57 -14 20
-18 27 -37 32 -88 4 -35 11 -82 16 -104 10 -47 19 -105 60 -360 16 -104 34
-207 39 -228 4 -20 5 -39 2 -41 -6 -4 -94 74 -276 244 -27 25 -97 88 -155 140
-117 104 -258 232 -365 330 -39 36 -190 173 -335 305 -146 132 -285 258 -310
281 -47 42 -114 103 -265 240 -50 45 -173 157 -275 249 -102 93 -205 186 -228
208 -24 21 -40 43 -35 47 4 5 222 79 483 165 261 86 484 161 495 165 24 10 48
18 56 19 3 1 9 -81 13 -181z m3834 30 c82 -172 173 -390 225 -538 83 -241 135
-514 116 -605 -4 -16 -7 -22 -8 -12 -5 84 -84 196 -140 198 -43 2 -75 -2 -87
-12 -10 -8 -25 -95 -39 -231 l-6 -58 -44 0 c-97 0 -137 -49 -137 -166 -1 -59
3 -79 18 -95 31 -35 68 -48 152 -55 l81 -7 -32 -46 c-18 -26 -104 -147 -192
-269 l-160 -222 -44 0 c-48 0 -36 -9 -324 270 -59 58 -112 107 -117 108 -6 2
-10 56 -10 123 l0 119 118 0 c64 0 146 3 182 6 l65 7 44 101 c25 55 57 128 72
161 15 33 48 107 74 165 26 58 56 124 66 147 20 45 24 63 12 63 -78 5 -213 19
-221 23 -5 4 -12 133 -16 287 l-7 281 33 27 c71 57 210 198 241 244 17 26 37
48 43 48 7 0 25 -28 42 -62z m-2520 -137 c77 -73 77 -73 23 -255 l-20 -68 27
-47 c48 -84 109 -141 151 -141 8 0 25 47 40 115 20 84 36 140 42 140 3 0 50
-42 104 -93 99 -92 99 -93 106 -150 3 -31 7 -256 8 -499 l2 -442 -68 25 c-37
14 -118 46 -180 70 -61 24 -115 44 -120 44 -11 0 -29 35 -37 70 -6 31 -28 120
-54 225 -213 839 -211 824 -152 961 34 81 48 104 59 104 3 -1 34 -27 69 -59z
m-2349 -212 c20 -18 59 -52 86 -78 28 -25 102 -93 165 -151 63 -58 117 -107
120 -110 3 -3 55 -50 115 -105 61 -54 142 -129 180 -165 39 -36 142 -130 230
-210 88 -80 194 -176 235 -215 42 -38 105 -97 141 -130 36 -33 113 -103 170
-156 57 -52 147 -134 199 -181 243 -219 614 -565 621 -578 4 -8 11 -37 16 -65
6 -39 12 -50 28 -53 86 -11 123 -25 161 -60 22 -20 141 -129 265 -242 230
-210 286 -261 398 -365 36 -33 70 -64 77 -70 6 -5 35 -32 63 -59 l53 -48 4
-77 c3 -42 9 -141 14 -221 5 -80 12 -185 14 -235 12 -204 27 -458 36 -585 6
-74 13 -214 16 -310 8 -198 16 -184 -72 -110 -59 51 -123 104 -269 224 -204
168 -387 319 -560 463 -190 157 -1331 1101 -1394 1152 -24 20 -101 83 -170
141 -70 58 -187 155 -260 215 -74 61 -142 117 -151 125 -10 8 -132 110 -272
225 l-254 210 -12 430 c-7 237 -15 540 -17 675 -8 400 -15 611 -21 683 -4 37
-3 67 1 67 4 0 24 -14 44 -31z m5536 -334 l0 -80 -34 -3 c-19 -2 -49 -1 -66 2
l-32 6 2 67 c2 66 3 67 36 79 19 7 48 12 64 11 l30 -2 0 -80z m-2261 -335
c147 -140 282 -267 299 -282 17 -16 28 -30 25 -33 -5 -5 -192 88 -486 241 -57
30 -107 52 -110 50 -4 -2 -23 -34 -42 -70 -19 -36 -37 -66 -40 -66 -7 0 -14
476 -6 488 3 5 25 -9 48 -32 24 -22 164 -156 312 -296z m-1304 43 l34 -36 4
-136 c2 -75 0 -152 -5 -171 l-9 -35 -57 3 c-104 7 -165 -34 -189 -124 -7 -24
-15 -44 -19 -44 -3 0 -14 19 -24 43 -9 23 -21 51 -26 62 -4 11 -13 38 -19 60
-8 33 -19 45 -62 70 -29 17 -59 43 -68 57 -14 25 -13 29 10 53 14 15 37 33 51
40 18 10 30 28 39 59 15 54 40 80 69 71 24 -7 69 -62 106 -130 47 -86 54 -80
35 30 -23 139 53 214 130 128z m3560 -280 c20 -25 64 -74 157 -174 26 -27 38
-52 48 -100 7 -35 16 -76 20 -91 7 -26 5 -28 -24 -28 -79 0 -206 103 -375 304
-63 76 -74 95 -59 109 3 4 53 7 109 7 100 0 103 -1 124 -27z m-2419 -177 c90
-47 238 -122 329 -169 l165 -84 11 -54 c6 -30 7 -55 4 -57 -4 -1 -36 5 -71 13
-35 9 -89 23 -119 30 -30 8 -73 19 -95 25 -22 7 -62 17 -90 24 -27 7 -57 15
-65 19 -8 3 -35 10 -60 16 -25 5 -63 15 -85 21 -22 6 -51 14 -65 17 -44 10
-50 28 -50 160 0 98 3 123 14 123 7 0 87 -38 177 -84z m2448 -234 c14 -9 28
-19 31 -22 17 -17 92 -43 135 -45 46 -3 51 -6 56 -32 4 -15 7 -40 8 -55 1 -26
0 -27 -46 -22 -77 8 -143 33 -213 79 -90 60 -106 80 -134 165 -13 41 -27 84
-32 95 -4 11 32 -17 81 -63 48 -46 99 -91 114 -100z m-3189 123 c30 -8 71 -18
90 -23 19 -6 89 -24 154 -42 130 -34 231 -66 258 -81 10 -5 33 -9 51 -9 18 0
60 -7 92 -16 168 -44 211 -55 340 -89 77 -20 154 -40 170 -45 17 -5 57 -16 90
-24 159 -42 174 -47 181 -68 10 -33 -42 -121 -115 -194 l-66 -66 -112 5 c-62
3 -113 2 -113 -2 0 -4 10 -16 21 -27 28 -25 69 -89 69 -108 0 -48 -113 -72
-356 -75 -210 -3 -299 32 -355 140 -33 65 -34 199 -3 306 5 18 1 25 -20 34
-24 11 -29 10 -60 -24 -47 -52 -76 -50 -136 11 -34 33 -51 61 -59 92 -15 56
-46 116 -80 154 -37 41 -122 93 -164 101 -38 7 -48 22 -43 65 2 14 4 25 5 26
0 1 25 -5 54 -13 28 -8 77 -21 107 -28z m1619 -154 l36 -34 5 -236 5 -236 240
-2 c132 -2 243 -3 247 -3 3 0 53 -44 109 -97 204 -193 374 -356 376 -362 3 -6
-45 -31 -60 -31 -5 0 -23 -6 -40 -14 -18 -7 -52 -21 -77 -31 -25 -10 -58 -23
-75 -30 -16 -7 -86 -34 -155 -60 -111 -42 -181 -69 -245 -95 -11 -5 -58 -23
-105 -40 -47 -18 -98 -38 -115 -45 -16 -7 -104 -41 -195 -75 -91 -34 -178 -68
-195 -75 -65 -28 -315 -125 -337 -130 -16 -4 -32 3 -53 22 -101 92 -258 236
-322 293 -21 19 -83 75 -138 126 -55 50 -120 109 -144 130 -113 101 -135 123
-131 128 3 2 37 1 75 -5 39 -5 126 -16 195 -24 242 -31 356 -45 430 -55 165
-22 315 -38 321 -35 3 2 18 35 33 72 15 37 32 77 36 88 16 35 87 216 145 365
31 80 60 154 65 165 48 108 50 131 13 138 -69 12 -133 33 -130 41 2 5 32 15
66 22 35 7 65 15 67 17 2 2 -1 28 -7 58 -6 30 -15 71 -19 92 l-8 38 25 -23
c14 -13 41 -38 62 -57z m1115 16 c36 -115 43 -178 30 -237 -7 -30 -13 -67 -14
-82 0 -16 -4 -28 -10 -28 -5 0 -12 12 -16 28 -9 42 -54 195 -64 217 -22 51
-21 64 12 113 18 27 36 48 40 46 3 -2 13 -28 22 -57z m-96 -178 c13 -41 30
-105 39 -144 8 -38 21 -98 28 -131 20 -91 38 -286 37 -394 -1 -124 0 -120 -12
-120 -6 0 -114 98 -241 217 -193 182 -228 219 -212 226 10 4 86 102 168 217
83 115 154 208 160 206 5 -1 20 -36 33 -77z m-786 -57 c51 -49 117 -110 146
-136 28 -27 52 -53 52 -57 0 -5 -67 -9 -150 -9 l-150 0 0 145 c0 80 2 145 4
145 3 0 46 -40 98 -88z m952 -134 c3 -13 7 -48 10 -78 44 -459 50 -544 66
-900 5 -135 15 -333 20 -440 6 -107 10 -295 10 -417 l0 -223 -55 0 c-36 0 -57
5 -60 13 -3 6 -9 152 -15 322 -6 171 -15 429 -20 575 -8 218 -7 279 4 345 23
127 29 324 15 480 -7 77 -13 167 -12 200 0 108 24 186 37 123z m-127 -749 c1
-30 7 -207 13 -394 5 -187 15 -425 20 -530 5 -104 11 -280 12 -390 l3 -199
-150 -68 c-82 -37 -177 -79 -210 -94 -33 -14 -82 -37 -110 -49 -86 -39 -148
-67 -205 -92 -30 -14 -68 -30 -85 -38 -16 -7 -65 -29 -108 -49 -43 -20 -80
-36 -82 -36 -2 0 -36 -15 -77 -34 -121 -55 -169 -77 -248 -111 -41 -18 -106
-47 -145 -65 -38 -17 -84 -38 -102 -46 -56 -25 -63 -21 -63 44 0 31 -4 95 -9
142 -5 47 -12 150 -15 230 -4 80 -11 208 -16 285 -30 447 -51 908 -42 916 7 7
436 179 446 179 3 0 30 11 60 25 30 14 59 25 63 25 5 0 27 9 49 19 22 11 52
23 67 26 15 4 30 11 33 16 3 5 12 9 21 9 8 0 29 6 46 14 18 8 97 40 177 71 80
30 154 60 165 65 11 5 56 23 100 40 44 17 89 34 100 39 11 5 40 16 65 26 25 9
53 21 62 26 10 5 23 9 29 9 11 0 71 24 99 40 27 16 35 4 37 -51z"/>
<path d="M4700 8320 l0 -91 93 3 92 3 3 43 3 42 -55 0 -56 0 0 45 0 45 -40 0
-40 0 0 -90z"/>
<path d="M4980 8000 l0 -130 105 0 105 0 0 40 0 39 -62 3 c-71 3 -65 -6 -67
111 l-1 67 -40 0 -40 0 0 -130z"/>
<path d="M3720 7863 c-8 -3 -27 -17 -42 -31 -51 -47 -34 -133 32 -167 99 -51
205 47 159 148 -6 12 -19 29 -30 35 -23 15 -97 24 -119 15z"/>
<path d="M4054 7811 c-18 -11 -39 -30 -48 -42 -38 -54 -4 -148 60 -169 69 -23
125 5 153 76 18 47 -9 109 -60 134 -48 25 -66 25 -105 1z"/>
<path d="M4706 7308 c-60 -227 -152 -365 -284 -430 -64 -31 -72 -33 -177 -32
-113 1 -158 11 -279 63 -27 12 -50 20 -51 19 -1 -2 -9 -19 -18 -38 l-16 -35
45 -22 c91 -44 241 -82 323 -83 228 -1 416 156 504 422 36 106 40 130 25 139
-20 13 -68 11 -72 -3z"/>
<path d="M5580 7532 l0 -99 48 -10 c115 -26 232 -47 236 -43 2 3 6 21 8 40 l3
34 -65 17 c-36 9 -83 20 -105 25 l-40 9 -3 63 -3 62 -39 0 -40 0 0 -98z"/>
<path d="M6251 7371 c-12 -8 -13 -17 -1 -64 15 -66 9 -87 -25 -87 -23 0 -25
-4 -25 -40 l0 -40 85 0 c52 0 85 4 85 10 0 11 -21 102 -42 188 -9 36 -14 42
-37 42 -14 0 -32 -4 -40 -9z"/>
</g>
</svg>
